<svg height ="44" width ="36" viewBox="0 0 36 44" xmlns="http://www.w3.org/2000/svg"><path d="m0 0h36v44h-36z" fill="none"/><path d="m2.64 24.46c.15 1.03 1.13 1.69 2.54 1.69 1.33 0 2.3-.72 2.3-1.7 0-.84-.62-1.37-1.98-1.72l-1.26-.33c-1.78-.45-2.56-1.26-2.56-2.66 0-1.67 1.4-2.81 3.49-2.81 1.91 0 3.33 1.13 3.43 2.73h-1.24c-.17-1.01-1-1.61-2.24-1.61-1.31 0-2.18.66-2.18 1.65 0 .77.54 1.22 1.9 1.57l1.03.27c2.04.51 2.86 1.31 2.86 2.75 0 1.81-1.43 2.97-3.68 2.97-2.09 0-3.53-1.11-3.66-2.81h1.25zm9.52-6.7v1.91h1.64v.98h-1.64v4.17c0 .87.33 1.24 1.09 1.24.21 0 .33-.01.55-.03v.99c-.23.04-.46.07-.69.07-1.52 0-2.13-.56-2.13-1.97v-4.47h-1.18v-.98h1.19v-1.91zm2.81 5.59c0-2.37 1.3-3.81 3.4-3.81s3.4 1.44 3.4 3.81-1.3 3.81-3.4 3.81-3.4-1.45-3.4-3.81zm5.58 0c0-1.75-.79-2.75-2.18-2.75s-2.18 1-2.18 2.75c0 1.74.79 2.75 2.18 2.75s2.18-1.01 2.18-2.75zm2.92-3.69h1.12v1.09h.11c.22-.72 1.07-1.22 2.04-1.22.19 0 .44.01.59.03v1.18c-.1-.03-.52-.07-.75-.07-1.12 0-1.93.75-1.93 1.79v4.57h-1.18zm11.04 5.47c-.34 1.26-1.49 2.04-3.1 2.04-2.04 0-3.32-1.48-3.32-3.81 0-2.32 1.3-3.82 3.32-3.82 1.99 0 3.2 1.42 3.2 3.71v.45h-5.3v.05c.06 1.46.88 2.38 2.13 2.38.95 0 1.59-.35 1.9-1zm-5.2-2.39h4.06c-.03-1.31-.81-2.17-1.98-2.17s-1.99.87-2.08 2.17z" fill="#fff"/></svg>